<svg width="149" height="41" viewBox="0 0 149 41" fill="none" xmlns="http://www.w3.org/2000/svg">
<path d="M48.8516 10.9375V28H45.6289V10.9375H48.8516ZM55.7305 18.3086V20.8516H48.0078V18.3086H55.7305ZM56.6328 10.9375V13.4805H48.0078V10.9375H56.6328ZM61.8711 10V28H58.7656V10H61.8711ZM64.2734 21.7891V21.543C64.2734 20.6133 64.4062 19.7578 64.6719 18.9766C64.9375 18.1875 65.3242 17.5039 65.832 16.9258C66.3398 16.3477 66.9609 15.8984 67.6953 15.5781C68.4297 15.25 69.2656 15.0859 70.2031 15.0859C71.1562 15.0859 72 15.25 72.7344 15.5781C73.4766 15.8984 74.1016 16.3477 74.6094 16.9258C75.1172 17.5039 75.5039 18.1875 75.7695 18.9766C76.0352 19.7578 76.168 20.6133 76.168 21.543V21.7891C76.168 22.7109 76.0352 23.5664 75.7695 24.3555C75.5039 25.1367 75.1172 25.8203 74.6094 26.4062C74.1016 26.9844 73.4805 27.4336 72.7461 27.7539C72.0117 28.0742 71.1719 28.2344 70.2266 28.2344C69.2891 28.2344 68.4492 28.0742 67.707 27.7539C66.9648 27.4336 66.3398 26.9844 65.832 26.4062C65.3242 25.8203 64.9375 25.1367 64.6719 24.3555C64.4062 23.5664 64.2734 22.7109 64.2734 21.7891ZM67.3672 21.543V21.7891C67.3672 22.3438 67.4219 22.8633 67.5312 23.3477C67.6406 23.832 67.8086 24.2578 68.0352 24.625C68.2617 24.9922 68.5547 25.2812 68.9141 25.4922C69.2812 25.6953 69.7188 25.7969 70.2266 25.7969C70.7266 25.7969 71.1562 25.6953 71.5156 25.4922C71.875 25.2812 72.168 24.9922 72.3945 24.625C72.6289 24.2578 72.8008 23.832 72.9102 23.3477C73.0195 22.8633 73.0742 22.3438 73.0742 21.7891V21.543C73.0742 20.9961 73.0195 20.4844 72.9102 20.0078C72.8008 19.5234 72.6289 19.0977 72.3945 18.7305C72.168 18.3555 71.8711 18.0625 71.5039 17.8516C71.1445 17.6328 70.7109 17.5234 70.2031 17.5234C69.7031 17.5234 69.2734 17.6328 68.9141 17.8516C68.5547 18.0625 68.2617 18.3555 68.0352 18.7305C67.8086 19.0977 67.6406 19.5234 67.5312 20.0078C67.4219 20.4844 67.3672 20.9961 67.3672 21.543ZM81.9453 24.9531L84.7227 15.3203H86.6914L86.1055 18.6484L83.3047 28H81.6055L81.9453 24.9531ZM80.4102 15.3203L82.4961 24.9766L82.6836 28H80.7266L77.3984 15.3203H80.4102ZM89.2695 24.8359L91.3086 15.3203H94.3086L91.0039 28H89.0469L89.2695 24.8359ZM86.9961 15.3203L89.75 24.8594L90.1133 28H88.4141L85.5898 18.6484L85.0156 15.3203H86.9961ZM101.469 28H97.7891L97.8125 25.4688H101.469C102.461 25.4688 103.293 25.25 103.965 24.8125C104.637 24.3672 105.145 23.7305 105.488 22.9023C105.832 22.0664 106.004 21.0664 106.004 19.9023V19.0234C106.004 18.125 105.906 17.332 105.711 16.6445C105.516 15.957 105.227 15.3789 104.844 14.9102C104.469 14.4414 104.004 14.0859 103.449 13.8438C102.895 13.6016 102.258 13.4805 101.539 13.4805H97.7188V10.9375H101.539C102.68 10.9375 103.719 11.1289 104.656 11.5117C105.602 11.8945 106.418 12.4453 107.105 13.1641C107.801 13.875 108.332 14.7266 108.699 15.7188C109.074 16.7109 109.262 17.8203 109.262 19.0469V19.9023C109.262 21.1211 109.074 22.2305 108.699 23.2305C108.332 24.2227 107.801 25.0742 107.105 25.7852C106.418 26.4961 105.598 27.043 104.645 27.4258C103.691 27.8086 102.633 28 101.469 28ZM99.5938 10.9375V28H96.3711V10.9375H99.5938ZM117.465 28.2344C116.504 28.2344 115.641 28.0781 114.875 27.7656C114.109 27.4531 113.457 27.0195 112.918 26.4648C112.387 25.9023 111.977 25.25 111.688 24.5078C111.406 23.7578 111.266 22.9531 111.266 22.0938V21.625C111.266 20.6484 111.406 19.7617 111.688 18.9648C111.969 18.1602 112.367 17.4688 112.883 16.8906C113.398 16.3125 114.016 15.8672 114.734 15.5547C115.453 15.2422 116.246 15.0859 117.113 15.0859C118.012 15.0859 118.805 15.2383 119.492 15.543C120.18 15.8398 120.754 16.2617 121.215 16.8086C121.676 17.3555 122.023 18.0117 122.258 18.7773C122.492 19.5352 122.609 20.375 122.609 21.2969V22.5977H112.672V20.4648H119.562V20.2305C119.547 19.7383 119.453 19.2891 119.281 18.8828C119.109 18.4688 118.844 18.1406 118.484 17.8984C118.125 17.6484 117.66 17.5234 117.09 17.5234C116.629 17.5234 116.227 17.625 115.883 17.8281C115.547 18.0234 115.266 18.3047 115.039 18.6719C114.82 19.0312 114.656 19.4609 114.547 19.9609C114.438 20.4609 114.383 21.0156 114.383 21.625V22.0938C114.383 22.625 114.453 23.1172 114.594 23.5703C114.742 24.0234 114.957 24.418 115.238 24.7539C115.527 25.082 115.871 25.3398 116.27 25.5273C116.676 25.707 117.137 25.7969 117.652 25.7969C118.301 25.7969 118.887 25.6719 119.41 25.4219C119.941 25.1641 120.402 24.7852 120.793 24.2852L122.352 25.9023C122.086 26.293 121.727 26.668 121.273 27.0273C120.828 27.3867 120.289 27.6797 119.656 27.9062C119.023 28.125 118.293 28.2344 117.465 28.2344ZM131.656 24.5312C131.656 24.2656 131.586 24.0273 131.445 23.8164C131.305 23.6055 131.039 23.4141 130.648 23.2422C130.266 23.0625 129.703 22.8945 128.961 22.7383C128.305 22.5977 127.699 22.4219 127.145 22.2109C126.59 22 126.113 21.7461 125.715 21.4492C125.316 21.1445 125.004 20.7891 124.777 20.3828C124.559 19.9688 124.449 19.4922 124.449 18.9531C124.449 18.4297 124.562 17.9375 124.789 17.4766C125.016 17.0078 125.344 16.5977 125.773 16.2461C126.203 15.8867 126.727 15.6055 127.344 15.4023C127.961 15.1914 128.656 15.0859 129.43 15.0859C130.508 15.0859 131.434 15.2617 132.207 15.6133C132.988 15.9648 133.586 16.4492 134 17.0664C134.414 17.6758 134.621 18.3633 134.621 19.1289H131.527C131.527 18.793 131.449 18.4883 131.293 18.2148C131.145 17.9414 130.914 17.7227 130.602 17.5586C130.289 17.3867 129.895 17.3008 129.418 17.3008C128.988 17.3008 128.625 17.3711 128.328 17.5117C128.039 17.6523 127.82 17.8359 127.672 18.0625C127.523 18.2891 127.449 18.5391 127.449 18.8125C127.449 19.0156 127.488 19.1992 127.566 19.3633C127.652 19.5195 127.789 19.6641 127.977 19.7969C128.164 19.9297 128.418 20.0508 128.738 20.1602C129.066 20.2695 129.469 20.375 129.945 20.4766C130.891 20.6641 131.715 20.9141 132.418 21.2266C133.129 21.5312 133.684 21.9375 134.082 22.4453C134.48 22.9531 134.68 23.6016 134.68 24.3906C134.68 24.9531 134.559 25.4688 134.316 25.9375C134.074 26.3984 133.723 26.8008 133.262 27.1445C132.801 27.4883 132.25 27.7578 131.609 27.9531C130.969 28.1406 130.246 28.2344 129.441 28.2344C128.277 28.2344 127.293 28.0273 126.488 27.6133C125.684 27.1914 125.074 26.6602 124.66 26.0195C124.246 25.3711 124.039 24.6992 124.039 24.0039H127.004C127.027 24.4961 127.16 24.8906 127.402 25.1875C127.645 25.4844 127.949 25.6992 128.316 25.832C128.691 25.957 129.086 26.0195 129.5 26.0195C129.969 26.0195 130.363 25.957 130.684 25.832C131.004 25.6992 131.246 25.5234 131.41 25.3047C131.574 25.0781 131.656 24.8203 131.656 24.5312ZM140.129 9.98828V28H137.035V9.98828H140.129ZM148.074 15.3203L142.555 21.5195L139.566 24.5547L138.582 22.1523L140.891 19.2461L144.336 15.3203H148.074ZM144.91 28L140.984 22.0938L143.047 20.0898L148.496 28H144.91Z" fill="black"/>
<path d="M20.5 0L22.1787 13.1451L29.3946 2.03014L25.2036 14.6019L36.5275 7.71846L27.2969 17.2268L40.486 15.9383L28.044 20.5L40.486 25.0617L27.2969 23.7732L36.5275 33.2815L25.2036 26.3981L29.3946 38.9699L22.1787 27.8549L20.5 41L18.8213 27.8549L11.6054 38.9699L15.7964 26.3981L4.47245 33.2815L13.7031 23.7732L0.513977 25.0617L12.956 20.5L0.513977 15.9383L13.7031 17.2268L4.47245 7.71846L15.7964 14.6019L11.6054 2.03014L18.8213 13.1451L20.5 0Z" fill="#FF8421"/>
<circle cx="20.5" cy="20.5" r="5.90678" fill="white"/>
</svg>
