<svg width="149" height="41" viewBox="0 0 149 41" fill="none" xmlns="http://www.w3.org/2000/svg">
<path d="M48.6758 10.9375V28H45.7344V10.9375H48.6758ZM55.6367 18.4023V20.7344H47.9258V18.4023H55.6367ZM56.6094 10.9375V13.2812H47.9258V10.9375H56.6094ZM61.6953 10V28H58.8594V10H61.6953ZM64.25 21.8008V21.5312C64.25 20.6172 64.3828 19.7695 64.6484 18.9883C64.9141 18.1992 65.2969 17.5156 65.7969 16.9375C66.3047 16.3516 66.9219 15.8984 67.6484 15.5781C68.3828 15.25 69.2109 15.0859 70.1328 15.0859C71.0625 15.0859 71.8906 15.25 72.6172 15.5781C73.3516 15.8984 73.9727 16.3516 74.4805 16.9375C74.9883 17.5156 75.375 18.1992 75.6406 18.9883C75.9062 19.7695 76.0391 20.6172 76.0391 21.5312V21.8008C76.0391 22.7148 75.9062 23.5625 75.6406 24.3438C75.375 25.125 74.9883 25.8086 74.4805 26.3945C73.9727 26.9727 73.3555 27.4258 72.6289 27.7539C71.9023 28.0742 71.0781 28.2344 70.1562 28.2344C69.2266 28.2344 68.3945 28.0742 67.6602 27.7539C66.9336 27.4258 66.3164 26.9727 65.8086 26.3945C65.3008 25.8086 64.9141 25.125 64.6484 24.3438C64.3828 23.5625 64.25 22.7148 64.25 21.8008ZM67.0742 21.5312V21.8008C67.0742 22.3711 67.1328 22.9102 67.25 23.418C67.3672 23.9258 67.5508 24.3711 67.8008 24.7539C68.0508 25.1367 68.3711 25.4375 68.7617 25.6562C69.1523 25.875 69.6172 25.9844 70.1562 25.9844C70.6797 25.9844 71.1328 25.875 71.5156 25.6562C71.9062 25.4375 72.2266 25.1367 72.4766 24.7539C72.7266 24.3711 72.9102 23.9258 73.0273 23.418C73.1523 22.9102 73.2148 22.3711 73.2148 21.8008V21.5312C73.2148 20.9688 73.1523 20.4375 73.0273 19.9375C72.9102 19.4297 72.7227 18.9805 72.4648 18.5898C72.2148 18.1992 71.8945 17.8945 71.5039 17.6758C71.1211 17.4492 70.6641 17.3359 70.1328 17.3359C69.6016 17.3359 69.1406 17.4492 68.75 17.6758C68.3672 17.8945 68.0508 18.1992 67.8008 18.5898C67.5508 18.9805 67.3672 19.4297 67.25 19.9375C67.1328 20.4375 67.0742 20.9688 67.0742 21.5312ZM81.8516 25.1875L84.7812 15.3203H86.5859L86.0938 18.2734L83.1406 28H81.5234L81.8516 25.1875ZM80.1289 15.3203L82.4141 25.2344L82.6016 28H80.7969L77.3633 15.3203H80.1289ZM89.3281 25.1172L91.543 15.3203H94.2969L90.875 28H89.0703L89.3281 25.1172ZM86.8906 15.3203L89.7852 25.0703L90.1484 28H88.5312L85.543 18.2617L85.0508 15.3203H86.8906ZM101.457 28H97.8125L97.8359 25.668H101.457C102.512 25.668 103.395 25.4375 104.105 24.9766C104.824 24.5156 105.363 23.8555 105.723 22.9961C106.09 22.1367 106.273 21.1133 106.273 19.9258V19C106.273 18.0781 106.168 17.2617 105.957 16.5508C105.754 15.8398 105.449 15.2422 105.043 14.7578C104.645 14.2734 104.152 13.9062 103.566 13.6562C102.988 13.4062 102.32 13.2812 101.562 13.2812H97.7422V10.9375H101.562C102.695 10.9375 103.73 11.1289 104.668 11.5117C105.605 11.8867 106.414 12.4297 107.094 13.1406C107.781 13.8516 108.309 14.7031 108.676 15.6953C109.043 16.6875 109.227 17.7969 109.227 19.0234V19.9258C109.227 21.1523 109.043 22.2617 108.676 23.2539C108.309 24.2461 107.781 25.0977 107.094 25.8086C106.406 26.5117 105.586 27.0547 104.633 27.4375C103.688 27.8125 102.629 28 101.457 28ZM99.4414 10.9375V28H96.5V10.9375H99.4414ZM117.488 28.2344C116.551 28.2344 115.703 28.082 114.945 27.7773C114.195 27.4648 113.555 27.0312 113.023 26.4766C112.5 25.9219 112.098 25.2695 111.816 24.5195C111.535 23.7695 111.395 22.9609 111.395 22.0938V21.625C111.395 20.6328 111.539 19.7344 111.828 18.9297C112.117 18.125 112.52 17.4375 113.035 16.8672C113.551 16.2891 114.16 15.8477 114.863 15.543C115.566 15.2383 116.328 15.0859 117.148 15.0859C118.055 15.0859 118.848 15.2383 119.527 15.543C120.207 15.8477 120.77 16.2773 121.215 16.832C121.668 17.3789 122.004 18.0312 122.223 18.7891C122.449 19.5469 122.562 20.3828 122.562 21.2969V22.5039H112.766V20.4766H119.773V20.2539C119.758 19.7461 119.656 19.2695 119.469 18.8242C119.289 18.3789 119.012 18.0195 118.637 17.7461C118.262 17.4727 117.762 17.3359 117.137 17.3359C116.668 17.3359 116.25 17.4375 115.883 17.6406C115.523 17.8359 115.223 18.1211 114.98 18.4961C114.738 18.8711 114.551 19.3242 114.418 19.8555C114.293 20.3789 114.23 20.9688 114.23 21.625V22.0938C114.23 22.6484 114.305 23.1641 114.453 23.6406C114.609 24.1094 114.836 24.5195 115.133 24.8711C115.43 25.2227 115.789 25.5 116.211 25.7031C116.633 25.8984 117.113 25.9961 117.652 25.9961C118.332 25.9961 118.938 25.8594 119.469 25.5859C120 25.3125 120.461 24.9258 120.852 24.4258L122.34 25.8672C122.066 26.2656 121.711 26.6484 121.273 27.0156C120.836 27.375 120.301 27.668 119.668 27.8945C119.043 28.1211 118.316 28.2344 117.488 28.2344ZM131.879 24.5664C131.879 24.2852 131.809 24.0312 131.668 23.8047C131.527 23.5703 131.258 23.3594 130.859 23.1719C130.469 22.9844 129.891 22.8125 129.125 22.6562C128.453 22.5078 127.836 22.332 127.273 22.1289C126.719 21.918 126.242 21.6641 125.844 21.3672C125.445 21.0703 125.137 20.7188 124.918 20.3125C124.699 19.9062 124.59 19.4375 124.59 18.9062C124.59 18.3906 124.703 17.9023 124.93 17.4414C125.156 16.9805 125.48 16.5742 125.902 16.2227C126.324 15.8711 126.836 15.5938 127.438 15.3906C128.047 15.1875 128.727 15.0859 129.477 15.0859C130.539 15.0859 131.449 15.2656 132.207 15.625C132.973 15.9766 133.559 16.457 133.965 17.0664C134.371 17.668 134.574 18.3477 134.574 19.1055H131.75C131.75 18.7695 131.664 18.457 131.492 18.168C131.328 17.8711 131.078 17.6328 130.742 17.4531C130.406 17.2656 129.984 17.1719 129.477 17.1719C128.992 17.1719 128.59 17.25 128.27 17.4062C127.957 17.5547 127.723 17.75 127.566 17.9922C127.418 18.2344 127.344 18.5 127.344 18.7891C127.344 19 127.383 19.1914 127.461 19.3633C127.547 19.5273 127.688 19.6797 127.883 19.8203C128.078 19.9531 128.344 20.0781 128.68 20.1953C129.023 20.3125 129.453 20.4258 129.969 20.5352C130.938 20.7383 131.77 21 132.465 21.3203C133.168 21.6328 133.707 22.0391 134.082 22.5391C134.457 23.0312 134.645 23.6562 134.645 24.4141C134.645 24.9766 134.523 25.4922 134.281 25.9609C134.047 26.4219 133.703 26.8242 133.25 27.168C132.797 27.5039 132.254 27.7656 131.621 27.9531C130.996 28.1406 130.293 28.2344 129.512 28.2344C128.363 28.2344 127.391 28.0312 126.594 27.625C125.797 27.2109 125.191 26.6836 124.777 26.043C124.371 25.3945 124.168 24.7227 124.168 24.0273H126.898C126.93 24.5508 127.074 24.9688 127.332 25.2812C127.598 25.5859 127.926 25.8086 128.316 25.9492C128.715 26.082 129.125 26.1484 129.547 26.1484C130.055 26.1484 130.48 26.082 130.824 25.9492C131.168 25.8086 131.43 25.6211 131.609 25.3867C131.789 25.1445 131.879 24.8711 131.879 24.5664ZM139.965 10V28H137.129V10H139.965ZM147.84 15.3203L142.32 21.4375L139.297 24.5312L138.559 22.1406L140.844 19.3164L144.43 15.3203H147.84ZM145.039 28L140.926 22.0469L142.707 20.0664L148.309 28H145.039Z" fill="white"/>
<path d="M20.5 0L22.1787 13.1451L29.3946 2.03014L25.2036 14.6019L36.5275 7.71846L27.2969 17.2268L40.486 15.9383L28.044 20.5L40.486 25.0617L27.2969 23.7732L36.5275 33.2815L25.2036 26.3981L29.3946 38.9699L22.1787 27.8549L20.5 41L18.8213 27.8549L11.6054 38.9699L15.7964 26.3981L4.47245 33.2815L13.7031 23.7732L0.513977 25.0617L12.956 20.5L0.513977 15.9383L13.7031 17.2268L4.47245 7.71846L15.7964 14.6019L11.6054 2.03014L18.8213 13.1451L20.5 0Z" fill="#FF8421"/>
<circle cx="20.5" cy="20.5" r="5.90678" fill="#1E1E1E"/>
</svg>
